<?xml version="1.0" standalone="no"?>
<!DOCTYPE svg PUBLIC "-//W3C//DTD SVG 20010904//EN"
 "http://www.w3.org/TR/2001/REC-SVG-20010904/DTD/svg10.dtd">
<svg version="1.0" xmlns="http://www.w3.org/2000/svg"
 width="200.000000pt" height="200.000000pt" viewBox="0 0 200.000000 200.000000"
 preserveAspectRatio="xMidYMid meet">

<g transform="translate(0.000000,200.000000) scale(0.100000,-0.100000)"
fill="#000000" stroke="none">
<path d="M0 1000 l0 -1000 1000 0 1000 0 0 1000 0 1000 -1000 0 -1000 0 0
-1000z m465 134 c-93 -83 -126 -104 -165 -104 -53 0 -104 37 -108 78 l-3 33
42 -30 c60 -44 89 -41 189 23 47 30 87 52 90 50 2 -3 -18 -26 -45 -50z m-161
-164 c17 0 49 11 71 25 22 13 43 25 47 25 15 0 -47 -79 -70 -89 -64 -30 -154
8 -160 67 l-3 33 42 -30 c25 -19 54 -31 73 -31z m-19 -140 c-14 -13 -19 -13
-53 5 -29 16 -38 27 -40 52 l-3 32 55 -37 c50 -33 54 -38 41 -52z m912 38 c-3
-8 -6 -5 -6 6 -1 11 2 17 5 13 3 -3 4 -12 1 -19z m61 15 c-9 -2 -19 -12 -21
-21 -3 -12 -5 -10 -6 6 -1 17 4 22 22 21 15 -1 17 -3 5 -6z"/>
</g>
</svg>
